<?xml version="1.0" encoding="UTF-8"?>
<svg xmlns="http://www.w3.org/2000/svg" width="210mm" height="297mm" viewBox="0 0 210 297">
  <rect fill="#ffffff" width="210" height="297"/>
  <text x="105" y="13" font-family="Segoe UI, Arial, sans-serif" font-size="8" text-anchor="middle" fill="#444">Выписка визуализации (НСПД, исследование)</text>
  <text x="105" y="28" font-family="Segoe UI, Arial, sans-serif" font-size="13" text-anchor="middle" font-weight="600">52:24:0110001:11553</text>
  <text x="105" y="38" font-family="Segoe UI, Arial, sans-serif" font-size="6.3" text-anchor="middle" fill="#333">Российская Федерация, Нижегородская область, Богородский р-н, ОАО &quot;Каменское&quot;</text>
  <rect x="12" y="40" width="186" height="197" fill="#f4f7fa" stroke="#c5d4e0" stroke-width="0.25"/>
  <path d="M 170.8110 165.2546 L 109.8211 106.4652 L 135.8374 85.0181 L 182.3426 46.6858 L 181.9830 45.9100 L 176.8406 48.2268 L 171.9169 48.4803 L 167.0658 50.3283 L 149.5519 58.6970 L 150.3387 59.8232 L 148.5371 61.1299 L 151.3360 65.0061 L 126.4536 85.5172 L 120.3102 90.4637 L 115.4779 94.6033 L 105.8592 102.1702 L 69.9861 126.3949 L 65.3757 129.5066 L 59.8755 133.2225 L 51.5711 139.9536 L 31.2435 152.7117 L 29.7717 153.3394 L 29.4814 153.1857 L 29.2707 154.0136 L 28.6642 155.0901 L 28.0610 155.9240 L 27.6574 156.7560 L 27.7234 158.0696 L 28.0362 158.9428 L 29.2274 160.2457 L 30.9295 161.7874 L 32.8821 162.9377 L 34.2182 163.4111 L 35.4524 163.2585 L 35.5879 163.3131 L 38.3651 164.2802 L 40.4187 165.2686 L 40.6573 165.3848 L 40.9945 166.1214 L 41.1100 167.4838 L 40.9145 168.5082 L 41.4404 169.8666 L 43.7051 171.3538 L 45.5536 172.3587 L 47.9717 174.0400 L 49.0603 175.3439 L 48.7122 176.2725 L 47.2403 177.3572 L 46.1166 177.5143 L 45.1389 177.0855 L 44.5755 176.9444 L 44.3716 177.1900 L 44.8386 177.8673 L 45.7139 178.4423 L 48.1338 180.3191 L 49.9865 181.1776 L 51.4777 182.1368 L 52.1952 182.4217 L 52.7580 182.0274 L 53.0992 180.3691 L 53.1376 179.2489 L 53.4419 178.7588 L 54.9747 178.4525 L 55.6366 178.6407 L 55.9972 178.4428 L 56.0329 177.0299 L 56.3801 176.0040 L 56.6214 174.6394 L 56.6657 173.6645 L 56.8505 172.9229 L 58.1232 173.8887 L 58.1786 174.0882 L 58.0297 177.2065 L 57.7330 178.3772 L 57.0774 179.4540 L 56.9336 180.2835 L 57.1443 180.8659 L 57.6543 180.9092 L 58.8261 180.1683 L 59.6298 179.7751 L 59.8586 180.7374 L 59.9215 182.2018 L 60.1333 183.8493 L 60.6187 185.1701 L 59.7957 185.4171 L 59.1842 185.9582 L 59.5502 186.9281 L 60.6359 187.9403 L 61.9168 188.3662 L 63.3520 188.5962 L 65.3040 189.1130 L 68.4255 189.7170 L 70.4805 190.2809 L 72.2736 191.0920 L 73.7730 192.3440 L 75.3329 195.3957 L 76.2114 196.3127 L 78.1130 197.1708 L 80.3221 198.4641 L 81.9234 199.7643 L 82.3165 200.3014 L 84.0863 201.3664 L 84.0588 201.4148 L 82.4792 200.5189 L 82.9592 201.1659 L 82.9661 201.8955 L 82.6383 202.2641 L 83.8155 202.6910 L 86.2916 202.6196 L 87.2012 202.2243 L 89.0795 201.6736 L 89.4224 201.2636 L 89.6892 201.2923 L 94.4530 212.4491 L 95.9414 216.2188 L 97.8895 222.2906 L 100.4270 229.3714 L 100.7798 231.0900 L 100.9804 230.9596 L 101.9647 230.3235 L 163.3694 190.6383 L 169.7015 186.5465 L 170.8433 185.8084 L 170.8110 165.2546 Z" fill="rgba(30,136,229,0.22)" stroke="#1565c0" stroke-width="0.28" fill-rule="evenodd"/>
  <text x="73.17" y="167.37" font-family="Segoe UI, Arial, sans-serif" font-size="4.5" text-anchor="middle" fill="#0d47a1" opacity="0.85">участок</text>
  <text x="12" y="245" font-family="Segoe UI, Arial, sans-serif" font-size="6.5" font-weight="600">Сведения</text>
  <text x="12" y="253" font-family="Segoe UI, Arial, sans-serif" font-size="5.2">Площадь по данным ЕГРН (specified_area): 811 371 м²</text>
  <text x="12" y="261" font-family="Segoe UI, Arial, sans-serif" font-size="5.2">Площадь по контуру в плоскости EPSG:3857 (шнурок, не равна земной из‑за проекции): 2 598 550 м²</text>
  <text x="12" y="269" font-family="Segoe UI, Arial, sans-serif" font-size="5.2">Кадастровая стоимость: 2 166 361 руб. · Удельный показатель: 2.67</text>
  <text x="12" y="277" font-family="Segoe UI, Arial, sans-serif" font-size="5.2">Вид разрешённого использования: Для сельскохозяйственного назначения</text>
  <text x="12" y="285" font-family="Segoe UI, Arial, sans-serif" font-size="5.2">Статус: Учтенный · Форма собственности: Частная</text>
  <text x="12" y="293" font-family="Segoe UI, Arial, sans-serif" font-size="4.8" fill="#666">Координаты контура — EPSG:3857. Источник: НСПД nspd.gov.ru — GET /api/geoportal/v2/search/geoportal</text>
  <text x="198" y="291" font-family="Segoe UI, Arial, sans-serif" font-size="4.5" text-anchor="end" fill="#888">Масштаб подогнан под поле карты · А4 портрет</text>
</svg>
